<?xml version="1.0" encoding="utf-8"?>
<!-- Generator: Adobe Illustrator 21.0.0, SVG Export Plug-In . SVG Version: 6.00 Build 0)  -->
<!DOCTYPE svg PUBLIC "-//W3C//DTD SVG 1.1//EN" "http://www.w3.org/Graphics/SVG/1.1/DTD/svg11.dtd">
<svg version="1.1" id="Layer_1" xmlns="http://www.w3.org/2000/svg" xmlns:xlink="http://www.w3.org/1999/xlink" x="0px" y="0px"
	 width="300px" height="300px" viewBox="0 0 300 300" enable-background="new 0 0 300 300" xml:space="preserve">
<g>
	<path fill="#FCA92A" d="M165.64,175.57c-6.2,0.91-12.42,1.69-18.58,2.83c-1.07,0.2-2.64,1.88-2.66,2.91
		c-0.22,9.76-0.26,19.53,0,29.29c0.03,1.1,2.15,2.92,3.45,3.07c3.73,0.43,7.59-0.16,11.3,0.34c1.89,0.25,4.47,1.61,5.1,3.15
		c0.64,1.56-0.07,4.59-1.32,5.87c-11.55,11.83-23.33,23.44-35.08,35.06c-2.72,2.69-5.71,2.6-8.36-0.04
		c-11.74-11.65-23.47-23.3-34.99-35.17c-1.24-1.27-1.94-4.33-1.26-5.83c0.69-1.53,3.29-2.79,5.21-3.05
		c3.56-0.49,7.23-0.23,10.85-0.15c2.46,0.05,3.86-0.68,3.85-3.44c-0.05-15.44,0.07-30.87-0.17-46.31c-0.03-1.88-1.66-3.98-3.04-5.55
		c-15.68-17.92-20.78-38.42-13.46-61.09c7.38-22.85,23.56-36.85,47.03-41.85c35.07-7.46,70.33,18.35,72.89,54.22
		c1.48,20.69,0.68,41.55,0.88,62.33c0.07,6.77,0.02,6.77,6.67,6.79c2.52,0.01,5.14-0.41,7.53,0.15c2.05,0.47,4.87,1.66,5.48,3.25
		c0.64,1.66-0.31,4.79-1.67,6.22c-8.48,8.89-17.26,17.48-25.95,26.17c-2.67,2.67-5.36,5.33-8.03,8c-2.83,2.82-5.73,3.09-8.65,0.17
		c-11.59-11.57-23.24-23.09-34.65-34.84c-1.25-1.29-2.01-4.3-1.37-5.82c0.66-1.54,3.25-2.88,5.15-3.13
		c3.72-0.49,7.56,0.01,11.31-0.28c1.23-0.1,2.37-1.37,3.56-2.1C166.31,176.35,165.97,175.96,165.64,175.57z M196.98,116.57
		c0.03-28.72-22.88-51.87-51.4-51.93c-28.74-0.06-51.87,22.79-51.98,51.34c-0.11,28.81,22.92,52.15,51.63,52.33
		C173.45,168.48,196.95,144.99,196.98,116.57z M147.53,224.09c-2.21-0.17-3.12-0.29-4.03-0.31c-8.44-0.19-9.19-0.93-9.2-9.23
		c-0.01-10.86,0.07-21.72-0.08-32.57c-0.02-1.64-0.72-4.27-1.81-4.73c-6.02-2.5-12.25-4.47-18.89-6.78
		c-0.17,2.21-0.45,4.2-0.45,6.19c-0.04,12.9-0.01,25.81-0.03,38.71c-0.01,7.3-0.89,8.18-8.03,8.42c-1.28,0.04-2.55,0.28-5.4,0.6
		c8.1,7.94,15.1,14.9,22.27,21.69c0.65,0.62,2.86,0.67,3.47,0.08C132.57,239.18,139.61,232.03,147.53,224.09z M197.39,150.9
		c-4.28,4.53-7.17,9.04-11.27,11.63c-7.91,5-11.51,11.22-9.96,20.61c0.62,3.76-1.9,5.72-5.72,5.9c-1.92,0.09-3.82,0.37-5.31,0.52
		c7.45,7.64,14.73,15.1,20.81,21.33c7.53-7.09,15.09-14.21,22.71-21.38c-0.57-0.09-1.17-0.24-1.78-0.27
		c-9.21-0.54-9.48-0.81-9.48-9.97C197.38,170.17,197.39,161.08,197.39,150.9z"/>
	<path fill="#FCA92A" d="M146.65,152.25c-2.96,0.24-4.79-0.57-5.09-4.3c-0.12-1.52-2.29-3.42-3.97-4.16
		c-5.67-2.5-10.69-5.49-12.52-11.9c-0.98-3.43-1.13-6.9,3.01-8.23c3.98-1.28,5.33,1.58,6.72,4.78c0.85,1.96,2.74,4.03,4.67,4.84
		c2.81,1.18,6.07,1.75,9.14,1.74c5.35-0.02,10.87-3.15,10.78-6.08c-0.16-5.14-4.89-6.04-8.48-7.61c-6.31-2.76-13.25-4.38-19.04-7.93
		c-10.04-6.14-9.64-18.31,0.21-24.84c1.69-1.12,3.56-2.13,5.49-2.67c2.74-0.77,4.25-1.92,4.49-5.09c0.08-1.09,2.71-2.74,4.2-2.76
		c1.77-0.02,5.09,1.46,5.08,2.25c-0.06,4.21,2.81,4.72,5.68,5.71c7.64,2.65,12.81,8.26,12.47,14.31c-0.11,1.99-2.04,5.06-3.66,5.45
		c-1.55,0.37-3.79-2.08-5.7-3.34c-0.2-0.13-0.17-0.59-0.26-0.89c-1.54-5.17-5.88-6.23-10.34-6.73c-5.14-0.58-10.34-0.24-13.66,4.35
		c-0.76,1.04,0.06,4.64,1.23,5.4c3.36,2.18,7.28,3.49,10.96,5.19c5.38,2.48,11.37,4.17,15.96,7.7c8.5,6.54,7.47,17.44-1.53,23.34
		c-2.21,1.44-4.97,2.03-7.19,3.46c-1.46,0.94-3.31,2.61-3.41,4.07C151.61,151.94,149.57,152.35,146.65,152.25z"/>
</g>
</svg>
